<?xml version="1.0" standalone="no"?>
<!DOCTYPE svg PUBLIC "-//W3C//DTD SVG 20010904//EN"
 "http://www.w3.org/TR/2001/REC-SVG-20010904/DTD/svg10.dtd">
<svg version="1.0" xmlns="http://www.w3.org/2000/svg"
 width="1750.000000pt" height="1750.000000pt" viewBox="0 0 1750.000000 1750.000000"
 preserveAspectRatio="xMidYMid meet">

<g transform="translate(0.000000,1750.000000) scale(0.100000,-0.100000)"
fill="#1c6e30" stroke="none">
<path d="M8745 15223 l-4120 -3 -90 -45 c-77 -39 -96 -54 -133 -104 l-42 -59
0 -4227 0 -4227 43 -54 c50 -65 149 -133 228 -157 52 -16 343 -17 4242 -17
3535 0 4190 2 4214 14 15 7 46 22 68 32 67 31 164 131 196 201 l29 63 0 4158
c0 3074 -3 4168 -11 4193 -23 67 -122 167 -215 217 -11 6 -80 12 -154 14 -74
2 -1989 2 -4255 1z m4243 -4411 c1 -2769 -1 -4039 -8 -4053 -11 -19 -66 -19
-4120 -19 l-4110 0 -2 4048 c-2 2226 -2 4050 0 4055 2 4 1856 6 4120 5 l4117
-3 3 -4033z"/>
<path d="M10245 14714 c-112 -13 -251 -37 -315 -54 -19 -5 -66 -16 -105 -25
-38 -10 -99 -26 -135 -37 -110 -34 -244 -79 -265 -88 -11 -5 -45 -19 -75 -30
-30 -11 -64 -25 -75 -30 -11 -5 -42 -19 -70 -31 -364 -158 -732 -393 -1077
-686 -131 -111 -412 -368 -447 -410 -14 -15 -67 -73 -119 -128 -245 -258 -530
-634 -667 -880 -39 -69 -138 -265 -152 -300 -6 -17 -23 -59 -37 -94 -42 -104
-83 -268 -96 -384 -23 -202 16 -378 116 -529 68 -102 195 -203 324 -257 30
-13 64 -28 75 -32 127 -55 271 -65 383 -25 102 35 143 59 381 219 149 99 281
166 384 193 37 10 67 23 67 29 0 6 -129 76 -287 155 l-288 144 -85 85 c-122
122 -185 252 -209 434 -59 433 171 912 629 1308 131 113 360 276 535 381 490
293 873 374 1193 250 160 -62 331 -212 451 -397 132 -202 171 -347 171 -629 0
-320 34 -416 172 -490 72 -38 209 -70 273 -62 56 6 167 31 200 45 11 5 40 17
65 27 75 30 236 134 338 218 124 101 274 254 409 415 152 182 162 202 84 162
-59 -31 -159 -29 -209 3 -145 91 -254 343 -327 751 -47 266 -55 300 -93 379
-87 179 -216 283 -445 357 -49 16 -124 34 -166 40 -112 17 -379 19 -506 3z"/>
<path d="M9350 14599 c-14 -5 -92 -25 -175 -45 -82 -20 -170 -42 -195 -49 -25
-7 -72 -21 -105 -30 -55 -15 -99 -28 -290 -87 -213 -65 -597 -201 -700 -248
-11 -5 -59 -25 -107 -44 -334 -136 -744 -352 -1033 -545 -675 -452 -1184 -945
-1507 -1461 -67 -107 -185 -339 -213 -420 -115 -327 -138 -450 -138 -716 1
-203 7 -255 50 -414 124 -453 443 -832 875 -1039 133 -63 312 -123 443 -147
150 -28 453 -26 590 4 116 25 257 69 337 106 31 14 59 26 63 26 15 0 216 128
265 169 146 121 269 285 368 490 62 127 112 236 112 244 0 3 16 41 36 84 91
199 155 306 249 416 86 101 71 100 -115 -7 -114 -66 -171 -111 -324 -256 -127
-119 -220 -189 -301 -224 -22 -9 -48 -21 -57 -26 -18 -10 -59 -22 -168 -47
-88 -20 -360 -13 -440 12 -196 62 -186 58 -295 111 -280 136 -417 321 -480
650 -22 113 -23 369 -1 504 88 552 349 1067 746 1473 303 311 734 623 1260
915 77 43 515 263 575 289 28 12 73 32 100 43 102 44 121 52 152 66 90 40 149
65 208 87 108 41 184 71 223 88 23 10 49 19 57 19 7 0 17 5 20 10 7 12 -49 12
-85 -1z"/>
<path d="M8625 12420 c-22 -6 -56 -13 -75 -16 -64 -12 -160 -65 -214 -117
-104 -103 -271 -437 -291 -584 -8 -64 -2 -65 63 -18 80 57 150 85 214 85 50 0
62 -4 93 -31 l35 -31 0 -138 c0 -75 -4 -263 -10 -416 -18 -529 -32 -970 -38
-1244 l-7 -275 -29 -50 c-16 -27 -69 -91 -118 -141 -48 -50 -88 -94 -88 -99 0
-4 12 -5 28 -2 188 39 242 32 463 -56 280 -113 382 -138 470 -117 47 12 48 11
116 -32 59 -38 94 -59 188 -115 127 -75 362 -173 520 -216 233 -64 544 -65
692 -1 17 8 35 14 41 14 17 0 146 72 208 116 67 47 186 165 234 232 43 60 103
183 133 272 89 264 71 609 -46 880 -130 302 -370 557 -637 676 -19 9 -57 26
-85 39 -67 30 -127 50 -205 70 -36 9 -81 20 -100 25 -122 32 -552 52 -576 27
-14 -14 6 -20 93 -28 251 -24 480 -107 652 -238 158 -121 259 -283 302 -486
34 -165 21 -499 -27 -675 -28 -103 -84 -235 -126 -299 -209 -320 -595 -404
-1192 -261 -43 11 -81 22 -85 25 -7 8 -5 11 110 146 139 164 291 371 282 380
-5 5 -33 0 -62 -12 -115 -43 -224 -34 -260 22 -15 26 -16 240 -1 839 5 212 12
552 16 755 6 410 11 447 70 552 41 74 212 331 254 382 17 19 30 38 30 42 0 3
-75 6 -167 6 -165 0 -171 1 -353 45 -274 68 -429 88 -515 68z"/>
<path d="M11360 11970 c-144 -9 -218 -22 -465 -76 -110 -24 -439 -123 -545
-164 -30 -12 -68 -26 -85 -31 -16 -5 -39 -13 -50 -18 -11 -5 -91 -39 -178 -76
-190 -80 -269 -116 -452 -207 -198 -99 -203 -109 -43 -83 141 22 494 54 601
55 49 0 168 -7 265 -16 337 -29 576 -108 768 -251 135 -100 252 -273 365 -538
16 -36 59 -179 73 -240 56 -242 59 -544 6 -766 -17 -70 -67 -222 -93 -279 -38
-85 -146 -257 -202 -321 -110 -126 -282 -270 -400 -335 -156 -85 -283 -137
-465 -188 -303 -84 -705 -109 -910 -55 -198 52 -407 157 -790 399 -184 115
-545 330 -556 330 -3 0 -47 20 -97 44 -232 112 -530 183 -717 171 -291 -19
-532 -92 -659 -200 -197 -168 -296 -404 -336 -805 -18 -172 -19 -264 -5 -419
30 -332 35 -350 72 -296 40 57 133 137 216 186 99 59 136 74 277 111 65 17
339 13 420 -6 94 -22 169 -44 230 -68 28 -11 63 -25 80 -31 89 -35 275 -135
380 -205 159 -106 277 -195 454 -344 165 -139 256 -202 362 -252 276 -128 574
-148 894 -59 106 29 197 60 234 79 14 8 29 14 33 14 9 0 144 66 228 112 409
224 916 675 1386 1233 516 613 1046 1472 1160 1882 70 249 73 523 10 753 -87
316 -335 638 -625 810 -89 52 -114 63 -211 96 -147 49 -392 70 -630 54z"/>
<path d="M5555 5718 c7 -24 21 -69 30 -100 18 -67 45 -81 45 -23 l0 35 170 0
171 0 -3 -631 -3 -631 -24 -19 c-13 -10 -32 -19 -42 -19 -14 0 -19 -7 -19 -25
l0 -25 175 0 175 0 0 25 c0 21 -5 25 -27 25 -39 0 -52 11 -63 51 -6 20 -10
274 -10 641 l0 608 164 0 c174 0 181 -2 169 -49 -4 -16 -1 -21 14 -21 16 0 24
17 46 89 31 104 32 111 12 111 -8 0 -15 -4 -15 -9 0 -5 -7 -17 -16 -25 -14
-14 -69 -16 -459 -16 l-443 0 -16 25 c-9 14 -23 25 -31 25 -12 0 -12 -6 0 -42z"/>
<path d="M10103 5660 c24 -76 35 -100 48 -100 15 0 17 6 12 35 l-6 35 172 0
171 0 0 -619 c0 -369 -4 -630 -10 -645 -6 -18 -19 -27 -45 -32 -28 -5 -35 -11
-35 -30 l0 -24 175 0 175 0 0 25 c0 21 -5 25 -29 25 -54 0 -57 10 -64 232 -4
111 -7 398 -7 636 l0 432 168 -2 167 -3 3 -32 c5 -53 29 -40 47 25 9 31 23 76
30 100 13 40 13 42 -6 42 -10 0 -19 -4 -19 -9 0 -5 -7 -17 -16 -25 -14 -14
-69 -16 -454 -16 -385 0 -440 2 -454 16 -9 8 -16 20 -16 25 0 5 -8 9 -19 9
-17 0 -16 -7 12 -100z"/>
<path d="M2452 5716 c-176 -58 -281 -284 -227 -489 28 -109 75 -178 160 -234
17 -11 84 -43 149 -72 140 -62 183 -88 221 -133 41 -48 55 -89 55 -160 -1 -97
-54 -193 -131 -233 -50 -27 -152 -38 -231 -26 -149 23 -215 101 -225 265 -6
82 -7 86 -29 86 l-24 0 0 -220 0 -220 183 0 c174 1 295 14 360 39 44 17 112
92 147 164 86 174 56 383 -72 510 -51 50 -124 92 -243 139 -184 71 -244 136
-245 264 0 79 44 172 102 214 46 33 132 54 187 45 58 -10 137 -60 179 -115 20
-27 45 -49 55 -49 21 -1 22 -5 -11 108 l-28 95 -49 13 c-77 21 -232 26 -283 9z"/>
<path d="M3492 5710 c-233 -61 -420 -294 -482 -601 -49 -237 -10 -450 115
-624 117 -164 270 -235 478 -222 169 10 292 70 411 199 77 82 154 229 187 353
30 114 37 332 15 440 -47 229 -213 412 -417 460 -88 20 -218 18 -307 -5z m131
-95 c284 -60 507 -363 507 -689 0 -379 -345 -658 -641 -519 -161 75 -320 297
-363 505 -20 99 -21 266 -1 343 45 171 188 324 338 361 68 16 80 16 160 -1z"/>
<path d="M8362 5715 c-132 -30 -272 -124 -369 -251 -43 -55 -96 -164 -125
-254 -33 -108 -33 -301 1 -410 76 -243 256 -435 466 -496 50 -14 115 -18 378
-21 l317 -5 0 26 c0 20 -5 26 -23 26 -13 0 -32 6 -43 14 -17 13 -19 29 -22
183 -3 188 3 214 53 223 21 4 31 12 33 28 l3 22 -171 0 -171 0 3 -22 c2 -16
11 -24 30 -26 49 -6 53 -22 53 -193 0 -131 -3 -162 -16 -175 -22 -21 -147 -37
-234 -29 -162 14 -269 60 -354 150 -117 126 -167 284 -159 504 9 220 69 384
189 515 175 190 463 186 654 -10 93 -96 98 -90 54 58 l-20 66 -62 26 c-34 14
-89 33 -122 42 -83 22 -264 27 -343 9z"/>
<path d="M9620 5727 c0 -10 -443 -1315 -456 -1342 -11 -23 -27 -39 -50 -47
-25 -9 -34 -18 -34 -35 0 -22 2 -23 100 -23 98 0 100 0 100 23 0 14 -8 28 -20
33 -19 9 -15 22 78 299 l97 290 161 3 161 2 91 -267 c113 -334 110 -323 83
-330 -14 -3 -21 -13 -21 -29 l0 -24 155 0 c154 0 155 0 155 23 0 16 -10 26
-39 38 -47 20 -62 47 -119 214 -22 66 -91 266 -152 445 -62 179 -140 408 -175
510 -79 232 -74 220 -96 220 -10 0 -19 -1 -19 -3z m51 -514 c38 -114 69 -209
69 -210 0 -2 -66 -3 -146 -3 -117 0 -145 3 -141 13 3 7 33 101 67 208 65 203
69 213 77 205 3 -2 36 -98 74 -213z"/>
<path d="M4360 5687 c0 -17 6 -23 26 -25 56 -4 54 15 54 -518 0 -518 3 -553
46 -652 49 -111 128 -178 244 -208 165 -42 341 19 450 157 l40 51 0 -106 0
-106 130 0 130 0 0 25 c0 20 -5 25 -25 25 -14 0 -34 9 -45 20 -20 20 -20 33
-20 654 0 501 3 636 13 644 7 6 26 12 42 15 22 2 31 10 33 25 3 22 2 22 -167
22 -161 0 -171 -1 -171 -19 0 -12 10 -21 27 -26 55 -14 53 13 53 -566 l0 -539
-59 -59 c-83 -83 -155 -116 -251 -116 -91 0 -153 27 -211 93 -52 59 -78 136
-89 256 -10 112 -13 858 -4 893 4 16 18 26 45 33 29 8 39 16 39 30 0 19 -8 20
-165 20 l-165 0 0 -23z"/>
<path d="M6612 5688 c2 -16 11 -24 28 -26 51 -7 50 8 50 -662 l0 -627 -23 -21
c-13 -12 -31 -22 -40 -22 -11 0 -17 -8 -17 -25 l0 -25 165 0 165 0 0 25 c0 17
-5 25 -18 25 -10 0 -28 7 -40 16 -22 15 -22 16 -22 325 l0 309 305 0 305 0 0
-309 c0 -309 0 -310 -22 -325 -12 -9 -30 -16 -40 -16 -13 0 -18 -8 -18 -25 l0
-25 165 0 165 0 0 25 c0 18 -5 25 -20 25 -11 0 -29 9 -40 20 -20 20 -20 33
-20 654 0 680 -2 651 51 659 15 3 25 12 27 25 3 22 2 22 -163 22 l-166 0 3
-22 c2 -16 11 -24 28 -26 14 -2 30 -8 36 -13 21 -17 26 -118 19 -360 l-8 -239
-303 0 -304 0 0 294 c0 313 0 311 50 318 17 2 26 10 28 26 l3 22 -166 0 -166
0 3 -22z"/>
<path d="M11144 5688 c2 -16 11 -24 29 -26 54 -7 52 14 50 -656 -1 -341 -4
-630 -8 -643 -4 -16 -15 -24 -40 -29 -28 -5 -35 -11 -35 -30 l0 -24 420 0 421
0 -3 113 c-3 105 -4 112 -24 115 -18 3 -22 -3 -28 -46 -4 -32 -14 -56 -29 -71
-23 -21 -30 -21 -242 -19 l-218 3 -21 28 c-20 27 -21 40 -21 295 l0 267 155 3
c189 4 240 -2 247 -29 3 -10 14 -19 24 -19 17 0 19 8 19 85 0 70 -3 85 -15 85
-9 0 -20 -11 -25 -25 l-10 -25 -200 0 -200 0 0 295 0 295 214 0 c170 0 217 -3
228 -14 8 -7 20 -39 27 -70 10 -44 16 -56 32 -56 18 0 19 8 19 110 l0 110
-385 0 -385 0 4 -22z"/>
<path d="M12530 5688 c0 -18 6 -23 26 -25 62 -3 59 29 56 -666 -3 -623 -4
-632 -24 -649 -11 -10 -31 -18 -44 -18 -19 0 -24 -5 -24 -25 l0 -25 175 0 175
0 0 25 c0 20 -5 25 -25 25 -14 0 -34 9 -45 20 -20 20 -20 33 -20 654 0 501 3
636 13 644 7 6 26 12 42 15 22 2 31 10 33 25 3 22 2 22 -167 22 -171 0 -171 0
-171 -22z"/>
<path d="M12920 5691 c0 -14 10 -21 33 -26 57 -13 84 -33 103 -77 18 -40 19
-81 22 -610 2 -311 -1 -581 -6 -600 -7 -27 -15 -35 -45 -42 -29 -8 -37 -14
-37 -33 0 -23 1 -23 125 -23 l125 0 0 24 c0 19 -7 26 -30 31 -17 4 -35 15 -40
25 -6 12 -10 220 -10 557 1 537 1 538 20 512 11 -15 110 -141 220 -280 111
-140 305 -386 433 -548 128 -162 240 -304 250 -315 18 -20 18 0 14 614 -4 585
-1 729 16 746 3 3 21 9 39 13 24 5 34 13 36 29 3 22 2 22 -128 22 -131 0 -131
0 -128 -22 2 -17 11 -24 30 -26 59 -7 58 1 58 -550 0 -300 -4 -502 -9 -500 -5
2 -64 75 -131 162 -67 88 -215 279 -329 425 -114 146 -249 321 -300 389 l-93
122 -119 0 c-111 0 -119 -1 -119 -19z"/>
<path d="M14252 5688 c2 -17 11 -23 38 -26 77 -8 106 -47 121 -163 13 -90 7
-1108 -6 -1142 -5 -10 -22 -20 -47 -23 -32 -6 -39 -10 -36 -28 3 -20 9 -21
131 -24 l127 -3 0 25 c0 18 -7 26 -27 31 -55 14 -53 -13 -53 572 l0 545 132
-169 c72 -92 218 -276 323 -408 105 -132 253 -320 330 -417 77 -98 142 -178
145 -178 3 0 5 303 5 673 0 735 -3 703 58 709 24 2 33 8 35 26 3 22 3 22 -128
22 -130 0 -131 0 -128 -22 2 -16 12 -24 33 -28 54 -9 55 -18 54 -450 -1 -217
-4 -442 -8 -499 l-6 -105 -45 60 c-24 32 -184 239 -355 459 -170 220 -341 442
-380 493 l-70 92 -123 0 c-121 0 -123 0 -120 -22z"/>
<path d="M2174 3976 c-3 -8 -4 -31 -2 -52 l3 -39 6675 0 6675 0 3 53 3 52
-6676 0 c-5701 0 -6676 -2 -6681 -14z"/>
<path d="M3841 3337 c-96 -197 -125 -248 -148 -261 -28 -15 -28 -15 32 -15 42
-1 55 2 45 9 -13 8 -7 26 37 115 l53 105 88 0 87 0 52 -102 c37 -75 48 -106
41 -115 -8 -10 7 -13 72 -13 l83 0 -33 23 c-26 17 -56 69 -149 257 -64 129
-122 236 -129 238 -8 2 -56 -86 -131 -241z m144 63 c19 -38 35 -74 35 -80 0
-6 -30 -10 -75 -10 -41 0 -75 2 -75 5 0 7 74 155 77 155 2 0 19 -31 38 -70z"/>
<path d="M6540 3336 c-95 -197 -124 -247 -147 -260 -28 -15 -28 -15 32 -15 37
-1 55 3 47 8 -18 11 -16 19 41 129 l47 92 88 0 87 0 52 -102 c38 -76 49 -106
41 -115 -8 -10 6 -13 73 -13 l84 0 -32 20 c-27 16 -52 60 -150 260 -65 132
-124 240 -131 240 -7 0 -66 -110 -132 -244z m145 64 c19 -38 35 -74 35 -80 0
-6 -30 -10 -75 -10 -41 0 -75 2 -75 5 0 7 74 155 77 155 2 0 19 -31 38 -70z"/>
<path d="M10951 3330 c-102 -207 -128 -251 -150 -259 -22 -8 -17 -10 33 -10
49 -1 57 1 47 13 -9 11 -1 35 40 115 l52 101 88 0 89 0 53 -105 c44 -89 50
-107 37 -115 -10 -7 13 -10 70 -10 l85 0 -30 19 c-24 14 -55 69 -150 260 -66
132 -124 241 -130 241 -6 0 -66 -112 -134 -250z m150 65 c20 -41 34 -77 31
-80 -11 -11 -142 -5 -142 7 0 16 62 148 69 147 3 0 22 -34 42 -74z"/>
<path d="M13615 3334 c-89 -183 -126 -249 -145 -259 -24 -14 -23 -14 30 -15
40 0 51 3 43 11 -9 9 2 38 40 116 l52 104 90 -3 89 -3 48 -90 c28 -52 46 -99
44 -112 -3 -22 -1 -23 73 -23 70 1 74 2 51 14 -18 10 -58 81 -147 260 -68 135
-128 246 -135 246 -7 0 -67 -111 -133 -246z m185 -16 c0 -5 -34 -8 -75 -8 -45
0 -75 4 -75 10 0 6 16 43 36 82 l37 72 38 -74 c21 -41 38 -78 39 -82z"/>
<path d="M2198 3555 l32 -14 -2 -228 -3 -227 -25 -13 c-22 -11 -13 -13 70 -13
83 0 92 2 70 13 -24 12 -25 17 -28 120 -1 59 0 107 4 107 5 0 329 -199 354
-218 2 -2 -2 -7 -10 -12 -10 -6 27 -10 105 -9 l120 0 -51 18 c-53 18 -444 246
-444 259 0 4 42 31 93 60 50 29 130 75 177 102 47 28 97 50 112 50 15 0 30 5
33 10 4 6 -21 10 -69 10 -56 0 -74 -3 -71 -12 4 -11 -289 -205 -339 -224 -14
-5 -16 5 -16 82 0 111 5 128 38 141 22 9 7 11 -78 12 -99 0 -103 -1 -72 -14z"/>
<path d="M5105 3560 c3 -5 13 -10 21 -10 12 0 14 -37 14 -235 0 -235 0 -236
-22 -245 -16 -7 37 -9 159 -7 166 2 184 4 209 23 44 32 66 68 71 115 7 67 -34
120 -112 144 -19 6 -18 8 7 21 75 39 60 146 -25 185 -35 15 -66 19 -185 19
-93 0 -141 -4 -137 -10z m237 -20 c66 -19 95 -82 66 -145 -17 -37 -57 -55
-123 -55 l-55 0 0 105 0 105 38 0 c20 0 54 -5 74 -10z m50 -230 c45 -13 74
-48 83 -101 9 -51 -9 -95 -46 -114 -53 -28 -168 -16 -191 19 -4 6 -8 55 -8
109 l0 97 63 0 c34 0 79 -5 99 -10z"/>
<path d="M7776 3561 c5 -5 20 -11 34 -13 42 -5 51 -55 48 -272 l-3 -190 -25
-13 c-22 -11 -18 -13 45 -12 58 0 66 2 48 11 -23 11 -23 14 -23 209 l0 199
248 -210 247 -210 3 240 2 241 28 11 27 12 -37 4 c-21 2 -55 2 -75 0 l-38 -4
28 -12 27 -12 0 -186 0 -186 -37 31 c-21 17 -123 107 -228 200 l-190 170 -69
1 c-43 0 -66 -4 -60 -9z"/>
<path d="M9310 3557 l25 -13 3 -231 2 -231 -27 -10 c-22 -8 -7 -10 72 -10 55
0 89 3 75 7 -25 7 -25 9 -28 120 -1 62 1 111 6 109 4 -1 86 -52 180 -112 118
-74 169 -112 160 -117 -7 -5 38 -9 102 -9 78 0 110 3 100 10 -8 5 -24 10 -36
10 -17 0 -348 190 -425 243 -20 15 -13 20 150 117 113 67 185 104 211 107 66
9 45 23 -34 23 -58 0 -73 -3 -72 -14 0 -9 -68 -58 -166 -120 -92 -58 -170
-106 -173 -106 -3 0 -5 49 -5 108 l0 108 28 11 c22 9 10 11 -73 12 -87 1 -97
-1 -75 -12z"/>
<path d="M12203 3557 l27 -11 2 -168 c4 -316 6 -291 -22 -305 -21 -11 12 -13
198 -13 l222 0 0 66 c0 41 -4 63 -10 59 -5 -3 -10 -17 -10 -29 0 -13 -9 -34
-19 -47 -18 -23 -26 -24 -125 -24 -149 0 -140 -14 -144 245 l-3 210 25 10 c14
5 26 12 26 15 0 3 -44 5 -97 4 -82 -1 -93 -3 -70 -12z"/>
<path d="M14840 3565 c0 -2 17 -9 39 -15 27 -7 41 -17 45 -33 3 -12 6 -116 6
-230 0 -206 0 -208 -22 -217 -17 -6 -5 -9 47 -9 63 -1 67 1 45 12 l-25 13 -3
192 c-1 117 1 192 7 192 5 0 118 -92 251 -205 132 -113 242 -205 244 -205 4 0
4 14 5 288 l1 192 28 12 27 12 -37 4 c-21 2 -55 1 -75 -1 -32 -3 -34 -5 -16
-11 30 -11 33 -30 33 -218 0 -153 -6 -189 -25 -158 -3 5 -103 95 -221 200
l-215 190 -70 0 c-38 0 -69 -2 -69 -5z"/>
</g>
</svg>
